<?xml version="1.0" standalone="no"?>
<!DOCTYPE svg PUBLIC "-//W3C//DTD SVG 20010904//EN"
 "http://www.w3.org/TR/2001/REC-SVG-20010904/DTD/svg10.dtd">
<svg version="1.0" xmlns="http://www.w3.org/2000/svg"
 width="64.000000pt" height="64.000000pt" viewBox="0 0 64.000000 64.000000"
 preserveAspectRatio="xMidYMid meet">

<g transform="translate(0.000000,64.000000) scale(0.100000,-0.100000)"
fill="#000000" stroke="none">
<path d="M271 601 c-12 -12 -21 -32 -21 -45 0 -13 -7 -26 -15 -30 -9 -3 -15
-18 -15 -36 0 -29 -2 -30 -45 -30 -47 0 -71 22 -59 53 7 19 -1 24 -58 32 -40
6 -49 4 -54 -10 -9 -22 12 -35 57 -35 l36 0 58 -135 c38 -88 65 -137 77 -141
17 -5 16 -8 -7 -42 -29 -42 -32 -67 -10 -76 11 -4 14 -13 10 -29 -8 -29 17
-57 49 -57 31 0 50 24 44 55 -5 25 -4 25 62 25 66 0 67 0 62 -25 -5 -31 13
-55 42 -55 30 0 46 18 46 52 0 15 7 31 17 36 10 6 14 16 10 26 -5 14 -27 16
-152 16 -88 0 -145 4 -145 10 0 16 43 37 90 44 131 19 170 29 170 42 0 7 12
16 28 20 55 12 53 8 50 106 -3 92 -3 93 -29 96 -18 2 -29 11 -33 25 -3 11 -8
18 -11 15 -3 -3 -19 7 -34 23 -20 20 -37 27 -57 26 -22 -2 -34 4 -49 28 -27
39 -83 47 -114 16z m99 -18 l21 -28 -23 -6 c-13 -3 -42 -9 -65 -13 -39 -6 -43
-4 -43 14 0 27 35 60 64 60 15 0 33 -11 46 -27z m4 -104 c-13 -15 -31 -19 -81
-19 -61 0 -63 1 -63 25 0 25 20 37 20 13 1 -8 6 -6 14 4 8 11 35 21 67 26 48
7 54 6 57 -11 2 -10 -4 -27 -14 -38z m114 40 c4 -21 -35 -32 -42 -12 -11 27
-6 34 16 31 13 -2 24 -10 26 -19z m-394 3 c2 -4 -13 -6 -35 -4 -21 2 -39 6
-39 8 0 7 69 4 74 -4z m336 -12 c0 -11 -6 -20 -14 -20 -9 0 -12 7 -9 20 3 11
9 20 14 20 5 0 9 -9 9 -20z m58 -37 c-10 -2 -26 -2 -35 0 -10 3 -2 5 17 5 19
0 27 -2 18 -5z m101 -71 l-1 -47 -20 44 c-16 35 -17 45 -7 52 22 13 29 0 28
-49z m-369 10 l-1 -27 -13 25 c-15 25 -12 45 5 35 5 -4 9 -18 9 -33z m91 -47
c21 -47 39 -88 39 -90 0 -3 -7 -5 -15 -5 -15 0 -85 137 -85 166 0 36 25 6 61
-71z m38 31 c25 -60 40 -137 23 -121 -12 12 -72 149 -72 164 0 6 6 11 13 11 7
0 23 -24 36 -54z m21 27 c0 -29 -2 -29 -19 5 -10 18 -9 22 4 22 10 0 15 -9 15
-27z m85 -45 c17 -39 32 -75 33 -80 2 -4 -3 -8 -10 -8 -12 0 -33 41 -75 148
-3 6 1 12 8 12 8 0 28 -32 44 -72z m52 -3 c22 -52 28 -75 19 -75 -11 0 -39 54
-73 138 -3 6 1 12 9 12 8 0 27 -32 45 -75z m32 38 c23 -88 21 -96 -9 -34 -35
74 -34 71 -15 71 8 0 18 -16 24 -37z m-335 -34 c14 -33 26 -76 26 -95 0 -26 5
-37 23 -44 22 -10 22 -10 -2 -7 -21 2 -32 17 -67 97 -24 52 -43 98 -43 103 -1
4 7 7 18 7 13 0 26 -17 45 -61z m96 -110 c0 -5 -7 -9 -15 -9 -19 0 -45 63 -45
109 1 35 1 35 30 -28 17 -35 30 -68 30 -72z m140 25 c0 -2 -6 -4 -14 -4 -16 0
-36 51 -35 89 0 21 5 16 25 -28 13 -29 24 -55 24 -57z m142 -6 c-8 -8 -9 -4
-5 13 4 13 8 18 11 10 2 -7 -1 -18 -6 -23z m-85 -14 c-3 -3 -12 -4 -19 -1 -8
3 -5 6 6 6 11 1 17 -2 13 -5z m-50 -10 c-3 -3 -12 -4 -19 -1 -8 3 -5 6 6 6 11
1 17 -2 13 -5z m-87 -8 c0 -2 -7 -7 -16 -10 -8 -3 -12 -2 -9 4 6 10 25 14 25
6z m37 -2 c-3 -3 -12 -4 -19 -1 -8 3 -5 6 6 6 11 1 17 -2 13 -5z m113 -3 c0
-4 -50 -16 -112 -26 -93 -15 -116 -23 -135 -43 -44 -48 -36 -51 135 -55 l157
-3 -172 -2 c-95 -1 -173 2 -173 6 0 5 13 27 30 50 21 29 39 43 62 47 213 39
208 38 208 26z m-203 -7 c-3 -3 -12 -4 -19 -1 -8 3 -5 6 6 6 11 1 17 -2 13 -5z"/>
</g>
</svg>
