<?xml version="1.0" standalone="no"?>
<!DOCTYPE svg PUBLIC "-//W3C//DTD SVG 20010904//EN"
 "http://www.w3.org/TR/2001/REC-SVG-20010904/DTD/svg10.dtd">
<svg version="1.0" xmlns="http://www.w3.org/2000/svg"
 width="64.000000pt" height="64.000000pt" viewBox="0 0 64.000000 64.000000"
 preserveAspectRatio="xMidYMid meet">

<g transform="translate(0.000000,64.000000) scale(0.100000,-0.100000)"
fill="#000000" stroke="none">
<path d="M271 578 c-28 -23 -51 -46 -51 -52 1 -6 21 -27 45 -46 51 -40 57 -66
24 -111 l-20 -29 -40 20 c-39 20 -48 33 -29 45 18 11 11 84 -10 105 -25 25
-72 26 -93 2 -28 -31 -21 -71 17 -106 l35 -30 -52 -52 c-97 -96 -92 -86 -92
-186 0 -121 -5 -118 200 -118 144 0 164 2 178 18 10 10 17 30 17 44 0 24 3 25
83 31 45 4 99 11 121 18 l39 11 -6 49 c-6 53 -50 161 -73 180 -8 6 -14 26 -14
44 0 27 8 40 46 70 l45 38 -32 33 c-18 19 -40 34 -48 34 -10 0 -4 -12 18 -34
l32 -33 -28 -23 -28 -22 -3 21 c-7 45 -22 18 -22 -38 l0 -60 -55 -6 c-30 -4
-75 -4 -100 -1 l-45 7 0 60 c0 33 -4 59 -10 59 -5 0 -10 -9 -10 -20 0 -26 -12
-25 -39 4 l-23 24 39 36 c21 19 43 36 48 36 6 0 24 -28 40 -63 17 -34 37 -63
47 -65 23 -4 56 35 70 82 7 22 20 41 30 44 10 2 18 8 18 13 0 14 -53 10 -74
-6 -25 -19 -60 -19 -76 0 -22 27 -64 17 -119 -27z m180 -8 c26 14 25 -5 -2
-49 -23 -37 -30 -34 -54 21 l-15 38 26 -10 c17 -7 32 -7 45 0z m-274 -72 c19
-25 21 -44 7 -77 l-14 -33 -33 24 c-31 25 -44 56 -33 84 7 17 60 19 73 2z
m386 -163 c29 -46 61 -149 53 -171 -8 -22 -26 -17 -26 9 0 34 -11 67 -22 67
-6 0 -7 -19 -3 -50 4 -31 3 -50 -3 -50 -5 0 -13 25 -17 55 -9 78 -29 84 -23 7
5 -68 1 -72 -73 -72 -36 0 -36 0 -42 51 -6 46 -12 57 -60 103 -48 47 -52 54
-41 72 12 17 25 19 123 19 l109 0 25 -40z m-306 -9 c2 -1 -3 -16 -9 -33 -11
-30 -15 -32 -72 -35 -34 -2 -74 -1 -90 2 l-29 5 58 52 58 52 41 -21 c23 -11
42 -21 43 -22z m73 -57 c0 -5 -16 -9 -35 -9 -38 0 -40 2 -25 31 10 18 12 18
35 3 14 -9 25 -20 25 -25z m-65 -139 l0 -35 -57 -3 -58 -3 0 41 0 41 58 -3 57
-3 0 -35z"/>
<path d="M162 133 c3 -26 6 -28 48 -28 41 0 45 2 45 25 0 23 -4 25 -48 28 -48
3 -48 3 -45 -25z"/>
</g>
</svg>
