<?xml version="1.0" standalone="no"?>
<!DOCTYPE svg PUBLIC "-//W3C//DTD SVG 20010904//EN"
 "http://www.w3.org/TR/2001/REC-SVG-20010904/DTD/svg10.dtd">
<svg version="1.0" xmlns="http://www.w3.org/2000/svg"
 width="64.000000pt" height="64.000000pt" viewBox="0 0 64.000000 64.000000"
 preserveAspectRatio="xMidYMid meet">

<g transform="translate(0.000000,64.000000) scale(0.100000,-0.100000)"
fill="#000000" stroke="none">
<path d="M266 617 c-4 -19 -16 -27 -51 -36 -33 -8 -48 -18 -55 -35 -5 -14 -18
-27 -29 -31 -12 -3 -21 -13 -21 -20 0 -8 -10 -20 -22 -26 -13 -7 -26 -17 -30
-23 -4 -6 -8 -102 -8 -213 0 -171 2 -204 16 -217 14 -14 43 -16 207 -14 189 3
192 3 202 26 5 12 18 25 28 28 10 3 22 17 27 30 5 13 16 24 24 24 30 0 36 39
36 239 0 197 0 201 -22 215 -13 8 -37 17 -55 21 -22 4 -33 13 -35 28 -3 21 -9
22 -104 25 -100 3 -102 2 -108 -21z m-38 -113 c-5 -59 5 -74 51 -74 20 0 21
-5 21 -150 l0 -150 -55 0 -55 0 0 209 c0 191 2 210 18 214 9 3 19 5 21 6 2 0
1 -24 -1 -55z m310 -161 l2 -213 -95 0 -95 0 0 161 0 161 43 -5 c23 -3 57 -9
76 -13 l34 -7 -5 67 c-6 64 -5 67 16 64 21 -3 21 -7 24 -215z m-241 124 c-25
-9 -26 -9 -20 31 l5 33 18 -28 c16 -27 16 -28 -3 -36z m173 28 c0 -36 -5 -41
-29 -26 -11 7 -10 13 4 35 10 14 19 26 21 26 2 0 4 -16 4 -35z"/>
<path d="M370 405 c-19 -23 -8 -50 22 -53 19 -2 28 2 33 18 12 39 -29 66 -55
35z m30 -25 c0 -5 -2 -10 -4 -10 -3 0 -8 5 -11 10 -3 6 -1 10 4 10 6 0 11 -4
11 -10z"/>
<path d="M363 304 c-8 -22 10 -49 32 -49 22 0 40 27 32 49 -8 21 -56 21 -64 0z"/>
<path d="M370 215 c-20 -25 -8 -50 25 -50 21 0 31 5 33 18 4 21 -14 47 -33 47
-7 0 -18 -7 -25 -15z"/>
</g>
</svg>
